<?xml version="1.0" encoding="UTF-8"?>
<svg data-bbox="0 0 394.24 74.113" preserveAspectRatio="none" xmlns:xlink="http://www.w3.org/1999/xlink" xmlns="http://www.w3.org/2000/svg" height="939.953" width="5000" viewBox="0 0 394.24 74.113" data-type="ugc">
    <g>
        <svg viewBox="14 14 72 72" preserveAspectRatio="none" y="9.882" height="54.35" width="54.35">
            <path d="M77 14H23a9 9 0 0 0-9 9v54a9 9 0 0 0 9 9h54a9 9 0 0 0 9-9V23a9 9 0 0 0-9-9zm-45 9c4.971 0 9 4.029 9 9s-4.029 9-9 9-9-4.029-9-9 4.029-9 9-9zm0 54c-4.971 0-9-4.029-9-9s4.029-9 9-9 9 4.029 9 9-4.029 9-9 9zm18-18c-4.971 0-9-4.029-9-9s4.029-9 9-9 9 4.029 9 9-4.029 9-9 9zm18 18c-4.971 0-9-4.029-9-9s4.029-9 9-9 9 4.029 9 9-4.029 9-9 9zm0-36c-4.971 0-9-4.029-9-9s4.029-9 9-9 9 4.029 9 9-4.029 9-9 9z" fill="#e556d8"/>
        </svg>
        <svg viewBox="1.56 -31.48 417.64 39.24" preserveAspectRatio="none" y="22.234" x="78.708" height="29.645" width="315.532">
            <path d="M22.24-6.24v-8.2h5.92v11.36q-2.28 1.72-5.28 2.64-3 .92-6.04.92Q12.48.48 9-1.38 5.52-3.24 3.54-6.54T1.56-14q0-4.16 1.98-7.46t5.5-5.16q3.52-1.86 7.92-1.86 3.68 0 6.68 1.24 3 1.24 5.04 3.6l-4.16 3.84q-3-3.16-7.24-3.16-2.68 0-4.76 1.12-2.08 1.12-3.24 3.16Q8.12-16.64 8.12-14q0 2.6 1.16 4.64 1.16 2.04 3.22 3.18 2.06 1.14 4.7 1.14 2.8 0 5.04-1.2zm17.44-12.44q1.12-1.56 3.02-2.36 1.9-.8 4.38-.8v5.76q-1.04-.08-1.4-.08-2.68 0-4.2 1.5t-1.52 4.5V0h-6.24v-21.52h5.96v2.84zm19.68-3.16q5 0 7.68 2.38 2.68 2.38 2.68 7.18V0h-5.84v-2.68q-1.76 3-6.56 3-2.48 0-4.3-.84-1.82-.84-2.78-2.32-.96-1.48-.96-3.36 0-3 2.26-4.72 2.26-1.72 6.98-1.72h4.96q0-2.04-1.24-3.14t-3.72-1.1q-1.72 0-3.38.54t-2.82 1.46l-2.24-4.36q1.76-1.24 4.22-1.92 2.46-.68 5.06-.68zm-.48 17.96q1.6 0 2.84-.74 1.24-.74 1.76-2.18V-9H59.2q-3.84 0-3.84 2.52 0 1.2.94 1.9t2.58.7zm32.4-25.8h6.24V0h-5.96v-2.48Q89.24.32 84.84.32q-3.04 0-5.5-1.36t-3.86-3.88q-1.4-2.52-1.4-5.84t1.4-5.84q1.4-2.52 3.86-3.88 2.46-1.36 5.5-1.36 4.12 0 6.44 2.6v-10.44zM85.92-4.8q2.36 0 3.92-1.62t1.56-4.34q0-2.72-1.56-4.34-1.56-1.62-3.92-1.62-2.4 0-3.96 1.62t-1.56 4.34q0 2.72 1.56 4.34 1.56 1.62 3.96 1.62zM115.04 0v-28h6.48V0h-6.48zm25.76-21.84q4 0 6.46 2.4t2.46 7.12V0h-6.24v-11.36q0-2.56-1.12-3.82-1.12-1.26-3.24-1.26-2.36 0-3.76 1.46t-1.4 4.34V0h-6.24v-21.52h5.96V-19q1.24-1.36 3.08-2.1t4.04-.74zm26.76 16.4l1.68 4.4q-.92.68-2.26 1.02-1.34.34-2.82.34-3.84 0-5.94-1.96-2.1-1.96-2.1-5.76v-8.84h-3.32v-4.8h3.32v-5.24h6.24v5.24h5.36v4.8h-5.36v8.76q0 1.36.7 2.1t1.98.74q1.48 0 2.52-.8zm25.6-5.24q0 .12-.12 1.68h-16.28q.44 2 2.08 3.16 1.64 1.16 4.08 1.16 1.68 0 2.98-.5t2.42-1.58l3.32 3.6Q188.6.32 182.76.32q-3.64 0-6.44-1.42-2.8-1.42-4.32-3.94-1.52-2.52-1.52-5.72 0-3.16 1.5-5.7t4.12-3.96q2.62-1.42 5.86-1.42 3.16 0 5.72 1.36 2.56 1.36 4.02 3.9 1.46 2.54 1.46 5.9zM182-17.12q-2.12 0-3.56 1.2t-1.76 3.28h10.6q-.32-2.04-1.76-3.26-1.44-1.22-3.52-1.22zm21.28-1.56q1.12-1.56 3.02-2.36 1.9-.8 4.38-.8v5.76q-1.04-.08-1.4-.08-2.68 0-4.2 1.5t-1.52 4.5V0h-6.24v-21.52h5.96v2.84zm27.24-2.84h6L227.44 0H221l-9.04-21.52h6.44l5.96 14.64 6.16-14.64zM239.08 0v-21.52h6.24V0h-6.24zm3.12-24.52q-1.72 0-2.8-1-1.08-1-1.08-2.48t1.08-2.48q1.08-1 2.8-1 1.72 0 2.8.96 1.08.96 1.08 2.4 0 1.56-1.08 2.58t-2.8 1.02zm30 13.84q0 .12-.12 1.68H255.8q.44 2 2.08 3.16 1.64 1.16 4.08 1.16 1.68 0 2.98-.5t2.42-1.58l3.32 3.6Q267.64.32 261.8.32q-3.64 0-6.44-1.42-2.8-1.42-4.32-3.94-1.52-2.52-1.52-5.72 0-3.16 1.5-5.7t4.12-3.96q2.62-1.42 5.86-1.42 3.16 0 5.72 1.36 2.56 1.36 4.02 3.9 1.46 2.54 1.46 5.9zm-11.16-6.44q-2.12 0-3.56 1.2t-1.76 3.28h10.6q-.32-2.04-1.76-3.26-1.44-1.22-3.52-1.22zm43.96-4.4h5.52L302.72 0h-6l-4.84-13.36-5 13.36h-6l-7.76-21.52H279l5.08 14.56 5.28-14.56h5.28l5.12 14.56L305-21.52zM337.32-28q3.72 0 6.46 1.24 2.74 1.24 4.22 3.52 1.48 2.28 1.48 5.4 0 3.08-1.48 5.38t-4.22 3.52q-2.74 1.22-6.46 1.22h-5.64V0h-6.48v-28h12.12zm-.36 15q2.92 0 4.44-1.26 1.52-1.26 1.52-3.58 0-2.36-1.52-3.62-1.52-1.26-4.44-1.26h-5.28V-13h5.28zm22.64-5.68q1.12-1.56 3.02-2.36 1.9-.8 4.38-.8v5.76q-1.04-.08-1.4-.08-2.68 0-4.2 1.5t-1.52 4.5V0h-6.24v-21.52h5.96v2.84zm32 8q0 .12-.12 1.68H375.2q.44 2 2.08 3.16 1.64 1.16 4.08 1.16 1.68 0 2.98-.5t2.42-1.58l3.32 3.6Q387.04.32 381.2.32q-3.64 0-6.44-1.42-2.8-1.42-4.32-3.94-1.52-2.52-1.52-5.72 0-3.16 1.5-5.7t4.12-3.96q2.62-1.42 5.86-1.42 3.16 0 5.72 1.36 2.56 1.36 4.02 3.9 1.46 2.54 1.46 5.9zm-11.16-6.44q-2.12 0-3.56 1.2t-1.76 3.28h10.6q-.32-2.04-1.76-3.26-1.44-1.22-3.52-1.22zm28.04-4.72q3 0 5.46 1.38t3.86 3.88q1.4 2.5 1.4 5.82 0 3.32-1.4 5.82-1.4 2.5-3.86 3.88T408.48.32q-4.12 0-6.48-2.6V7.76h-6.24v-29.28h5.96v2.48q2.32-2.8 6.76-2.8zM407.4-4.8q2.4 0 3.94-1.62t1.54-4.34q0-2.72-1.54-4.34-1.54-1.62-3.94-1.62t-3.94 1.62q-1.54 1.62-1.54 4.34 0 2.72 1.54 4.34Q405-4.8 407.4-4.8z" fill="#4d4d4d"/>
        </svg>
        <svg viewBox="0 0 3.294 74.113" preserveAspectRatio="none" x="62.238" height="74.113" width="3.294">
            <path stroke-width="0" stroke="#fff" fill="#e556d8" d="M3.294 0v74.113H0V0h3.294z"/>
        </svg>
    </g>
</svg>
